<?xml version="1.0" encoding="UTF-8"?>
<svg width="300px" height="300px" viewBox="0 0 300 300" version="1.1" xmlns="http://www.w3.org/2000/svg" xmlns:xlink="http://www.w3.org/1999/xlink">
    <title>icon-wechat</title>
    <g id="icon-wechat" stroke="none" fill="none" fill-rule="evenodd" stroke-width="1">
        <g id="Group" fill="#000000">
            <path d="M200.803,111.88 C176.59,113.145 155.535,120.485 138.441,137.068 C121.17,153.822 113.286,174.352 115.441,199.802 C105.977,198.63 97.357,197.34 88.688,196.61 C85.694,196.358 82.141,196.716 79.605,198.147 C71.187,202.897 63.117,208.26 53.552,214.239 C55.307,206.301 56.443,199.35 58.454,192.664 C59.933,187.75 59.248,185.015 54.721,181.815 C25.655,161.294 13.403,130.583 22.572,98.965 C31.055,69.715 51.887,51.976 80.193,42.729 C118.828,30.109 162.247,42.982 185.74,73.656 C194.225,84.736 199.428,97.172 200.803,111.88 Z M91.3268687,94.9756803 C91.6405795,86.9477122 84.5912294,79.7151834 76.2181038,79.4736364 C67.6452162,79.2251483 60.5944592,85.6900018 60.3440533,94.0261506 C60.0908337,102.474744 66.639372,109.245001 75.2741577,109.461561 C83.8343843,109.675344 91.0103443,103.202161 91.3268687,94.9756803 Z M139.491835,79.5164967 C131.337382,79.6688599 124.446909,86.7163536 124.591598,94.7583639 C124.740382,103.09402 131.499816,109.615168 139.884953,109.512669 C148.29193,109.41017 154.667801,102.819766 154.588631,94.3081997 C154.519017,85.9531521 147.789613,79.3627483 139.491835,79.5164967 Z" id="Shape" fill-rule="nonzero"></path>
            <path d="M255.201,262.83 C247.534,259.416 240.501,254.294 233.013,253.512 C225.554,252.733 217.713,257.036 209.909,257.834 C186.138,260.266 164.842,253.641 147.282,237.402 C113.885,206.512 118.657,159.148 157.296,133.834 C191.637,111.336 242,118.836 266.212,150.053 C287.341,177.293 284.858,213.453 259.064,236.337 C251.6,242.96 248.914,248.41 253.703,257.141 C254.587,258.753 254.688,260.794 255.201,262.83 L255.201,262.83 Z M173.340842,186.331005 C181.137124,186.338757 187.556558,180.410399 187.852053,172.928563 C188.163521,165.007532 181.606722,158.363737 173.443068,158.331005 C165.360874,158.295452 158.59004,165.032363 158.87116,172.835448 C159.136307,180.290901 165.600465,186.321686 173.340842,186.331005 Z M229.325794,158.270378 C221.874279,158.218934 215.54301,164.26283 215.239348,171.722217 C214.916806,179.699163 221.174127,186.249705 229.141708,186.270052 C236.84811,186.294914 242.937079,180.520709 243.21714,172.922578 C243.516082,164.926926 237.255614,158.324939 229.325794,158.270378 L229.325794,158.270378 Z" id="Shape" fill-rule="nonzero"></path>
        </g>
    </g>
</svg>